<svg width="50" height="10" viewBox="0 0 50 10" fill="none" xmlns="http://www.w3.org/2000/svg">
<g id="Group 4362">
<path id="Star 11" d="M5 0L6.46946 2.97746L9.75528 3.45492L7.37764 5.77254L7.93893 9.04508L5 7.5L2.06107 9.04508L2.62236 5.77254L0.244718 3.45492L3.53054 2.97746L5 0Z" fill="#FDA219"/>
<path id="Star 12" d="M15 0L16.4695 2.97746L19.7553 3.45492L17.3776 5.77254L17.9389 9.04508L15 7.5L12.0611 9.04508L12.6224 5.77254L10.2447 3.45492L13.5305 2.97746L15 0Z" fill="#FDA219"/>
<path id="Star 13" d="M25 0L26.4695 2.97746L29.7553 3.45492L27.3776 5.77254L27.9389 9.04508L25 7.5L22.0611 9.04508L22.6224 5.77254L20.2447 3.45492L23.5305 2.97746L25 0Z" fill="#FDA219"/>
<path id="Star 14" d="M35 0L36.4695 2.97746L39.7553 3.45492L37.3776 5.77254L37.9389 9.04508L35 7.5L32.0611 9.04508L32.6224 5.77254L30.2447 3.45492L33.5305 2.97746L35 0Z" fill="#FDA219"/>
<path id="Star 15" d="M45 0L46.4695 2.97746L49.7553 3.45492L47.3776 5.77254L47.9389 9.04508L45 7.5L42.0611 9.04508L42.6224 5.77254L40.2447 3.45492L43.5305 2.97746L45 0Z" fill="#FDA219"/>
</g>
</svg>
